<?xml version="1.0" encoding="UTF-8" standalone="no"?><!-- Generator: Gravit.io --><svg xmlns="http://www.w3.org/2000/svg" xmlns:xlink="http://www.w3.org/1999/xlink" style="isolation:isolate" viewBox="0 0 298 192" width="298pt" height="192pt"><defs><clipPath id="_clipPath_jKli99iFZa7CohkIIwCAU6PglhAG5hil"><rect x="0" y="0" width="298" height="192"/></clipPath></defs><g clip-path="url(#_clipPath_jKli99iFZa7CohkIIwCAU6PglhAG5hil)"><clipPath id="_clipPath_EUxYJP1ayreO8Y02agnoZc2OSDkgaV16"><rect x="0" y="0" width="298" height="192" transform="matrix(1,0,0,1,0,0)" fill="rgb(255,255,255)"/></clipPath><g clip-path="url(#_clipPath_EUxYJP1ayreO8Y02agnoZc2OSDkgaV16)"><g><path d=" M 19 0 L 279 0 C 289.486 0 298 8.514 298 19 L 298 19 C 298 29.486 289.486 38 279 38 L 19 38 C 8.514 38 0 29.486 0 19 L 0 19 C 0 8.514 8.514 0 19 0 Z " fill="rgb(0,164,154)"/><path d=" M 19 77 L 279 77 C 289.486 77 298 85.514 298 96 L 298 96 C 298 106.486 289.486 115 279 115 L 19 115 C 8.514 115 0 106.486 0 96 L 0 96 C 0 85.514 8.514 77 19 77 Z " fill="rgb(0,164,154)"/><path d=" M 19 154 L 279 154 C 289.486 154 298 162.514 298 173 L 298 173 C 298 183.486 289.486 192 279 192 L 19 192 C 8.514 192 0 183.486 0 173 L 0 173 C 0 162.514 8.514 154 19 154 Z " fill="rgb(0,164,154)"/></g></g></g></svg>