<?xml version="1.0" encoding="UTF-8" standalone="no"?><!-- Generator: Gravit.io --><svg xmlns="http://www.w3.org/2000/svg" xmlns:xlink="http://www.w3.org/1999/xlink" style="isolation:isolate" viewBox="614 390 298 192" width="298pt" height="192pt"><defs><clipPath id="_clipPath_I8JYqxcZFZLpvguJsgY1nVmKKHw3knq3"><rect x="614" y="390" width="298" height="192"/></clipPath></defs><g clip-path="url(#_clipPath_I8JYqxcZFZLpvguJsgY1nVmKKHw3knq3)"><path d="M 633 390 L 893 390 C 903.486 390 912 398.514 912 409 L 912 409 C 912 419.486 903.486 428 893 428 L 633 428 C 622.514 428 614 419.486 614 409 L 614 409 C 614 398.514 622.514 390 633 390 Z" style="stroke:none;fill:#009688;stroke-miterlimit:10;"/><path d="M 633 467 L 893 467 C 903.486 467 912 475.514 912 486 L 912 486 C 912 496.486 903.486 505 893 505 L 633 505 C 622.514 505 614 496.486 614 486 L 614 486 C 614 475.514 622.514 467 633 467 Z" style="stroke:none;fill:#009688;stroke-miterlimit:10;"/><path d="M 633 544 L 893 544 C 903.486 544 912 552.514 912 563 L 912 563 C 912 573.486 903.486 582 893 582 L 633 582 C 622.514 582 614 573.486 614 563 L 614 563 C 614 552.514 622.514 544 633 544 Z" style="stroke:none;fill:#009688;stroke-miterlimit:10;"/></g></svg>