<?xml version="1.0" encoding="UTF-8" standalone="no"?><!-- Generator: Gravit.io --><svg xmlns="http://www.w3.org/2000/svg" xmlns:xlink="http://www.w3.org/1999/xlink" style="isolation:isolate" viewBox="672.08 301.08 221.84 221.84" width="221.84pt" height="221.84pt"><defs><clipPath id="_clipPath_7g90J7UsMlP183rAHdU1s1P9zLxf0UdO"><rect x="672.08" y="301.08" width="221.84" height="221.84"/></clipPath></defs><g clip-path="url(#_clipPath_7g90J7UsMlP183rAHdU1s1P9zLxf0UdO)"><path d="M 677.641 490.489 L 861.489 306.641 C 868.904 299.226 880.944 299.226 888.359 306.641 L 888.359 306.641 C 895.774 314.056 895.774 326.096 888.359 333.511 L 704.511 517.359 C 697.096 524.774 685.056 524.774 677.641 517.359 L 677.641 517.359 C 670.226 509.944 670.226 497.904 677.641 490.489 Z" style="stroke:none;fill:#009688;stroke-miterlimit:10;"/><path d="M 704.511 306.641 L 888.359 490.489 C 895.774 497.904 895.774 509.944 888.359 517.359 L 888.359 517.359 C 880.944 524.774 868.904 524.774 861.489 517.359 L 677.641 333.511 C 670.226 326.096 670.226 314.056 677.641 306.641 L 677.641 306.641 C 685.056 299.226 697.096 299.226 704.511 306.641 Z" style="stroke:none;fill:#009688;stroke-miterlimit:10;"/></g></svg>