<?xml version="1.0" encoding="UTF-8" standalone="no"?><!-- Generator: Gravit.io --><svg xmlns="http://www.w3.org/2000/svg" xmlns:xlink="http://www.w3.org/1999/xlink" style="isolation:isolate" viewBox="0 0 221.84 221.84" width="221.84pt" height="221.84pt"><defs><clipPath id="_clipPath_L0mbxxNkYWZgMjmJtiHeHnVpVFFdSBtn"><rect x="0" y="0" width="221.84" height="221.84"/></clipPath></defs><g clip-path="url(#_clipPath_L0mbxxNkYWZgMjmJtiHeHnVpVFFdSBtn)"><clipPath id="_clipPath_0DZnz3QBVGTVfdvo59WpoB3C0pb6CMrk"><rect x="0" y="0" width="221.84" height="221.84" transform="matrix(1,0,0,1,0,0)" fill="rgb(255,255,255)"/></clipPath><g clip-path="url(#_clipPath_0DZnz3QBVGTVfdvo59WpoB3C0pb6CMrk)"><g><path d=" M 5.561 189.409 L 189.409 5.561 C 196.824 -1.854 208.864 -1.854 216.279 5.561 L 216.279 5.561 C 223.694 12.976 223.694 25.016 216.279 32.431 L 32.431 216.279 C 25.016 223.694 12.976 223.694 5.561 216.279 L 5.561 216.279 C -1.854 208.864 -1.854 196.824 5.561 189.409 Z " fill="rgb(0,164,154)"/><path d=" M 32.431 5.561 L 216.279 189.409 C 223.694 196.824 223.694 208.864 216.279 216.279 L 216.279 216.279 C 208.864 223.694 196.824 223.694 189.409 216.279 L 5.561 32.431 C -1.854 25.016 -1.854 12.976 5.561 5.561 L 5.561 5.561 C 12.976 -1.854 25.016 -1.854 32.431 5.561 Z " fill="rgb(0,164,154)"/></g></g></g></svg>