<?xml version="1.0" encoding="UTF-8" standalone="no"?><!-- Generator: Gravit.io --><svg xmlns="http://www.w3.org/2000/svg" xmlns:xlink="http://www.w3.org/1999/xlink" style="isolation:isolate" viewBox="1957.5 514.25 227.5 406.25" width="227.5pt" height="406.25pt"><defs><clipPath id="_clipPath_WOwNGmZITJ1fhctSbzgkYR18np457MDb"><rect x="1957.5" y="514.25" width="227.5" height="406.25"/></clipPath></defs><g clip-path="url(#_clipPath_WOwNGmZITJ1fhctSbzgkYR18np457MDb)"><g><g><path d=" M 2141.25 535.5 L 2001.25 535.5 C 1977.088 535.5 1957.5 555.088 1957.5 579.25 L 1957.5 876.75 C 1957.5 900.912 1977.088 920.5 2001.25 920.5 L 2141.25 920.5 C 2165.412 920.5 2185 900.912 2185 876.75 L 2185 579.25 C 2185 555.088 2165.412 535.5 2141.25 535.5 Z  M 2071.25 903 C 2056.725 903 2045 891.275 2045 876.75 C 2045 862.225 2056.725 850.5 2071.25 850.5 C 2085.775 850.5 2097.5 862.225 2097.5 876.75 C 2097.5 891.275 2085.775 903 2071.25 903 Z  M 2150 833 L 1992.5 833 L 1992.5 588 L 2150 588 L 2150 833 Z " fill="rgb(35,31,32)"/><rect x="1987.25" y="584" width="168" height="254" transform="matrix(1,0,0,1,0,0)" fill="transparent" vector-effect="non-scaling-stroke" stroke-width="8" stroke="rgb(255,255,255)" stroke-linejoin="miter" stroke-linecap="square" stroke-miterlimit="2"/><rect x="1991.25" y="588" width="160" height="246" transform="matrix(1,0,0,1,0,0)" fill="rgb(35,31,32)"/><clipPath id="_clipPath_II3phWUruE8ywDRkOnucQdM5UISqQaFK"><rect x="1987.25" y="584" width="168" height="254" transform="matrix(1,0,0,1,0,0)" fill="transparent" vector-effect="non-scaling-stroke" stroke-width="8" stroke="rgb(255,255,255)" stroke-linejoin="miter" stroke-linecap="square" stroke-miterlimit="2"/><rect x="1991.25" y="588" width="160" height="246" transform="matrix(1,0,0,1,0,0)" fill="rgb(35,31,32)"/></clipPath><g clip-path="url(#_clipPath_II3phWUruE8ywDRkOnucQdM5UISqQaFK)"><rect x="2097" y="533.961" width="105" height="390" transform="matrix(1,0,0,1,0,0)" fill="rgb(239,73,47)"/><rect x="2045.5" y="533.5" width="51.5" height="390" transform="matrix(1,0,0,1,0,0)" fill="rgb(255,222,27)"/></g><rect x="1987.25" y="584" width="168" height="254" transform="matrix(1,0,0,1,0,0)" fill="transparent" vector-effect="non-scaling-stroke" stroke-width="8" stroke="rgb(255,255,255)" stroke-linejoin="miter" stroke-linecap="square" stroke-miterlimit="2"/></g></g></g></svg>