<?xml version="1.0" encoding="UTF-8" standalone="no"?><!-- Generator: Gravit.io --><svg xmlns="http://www.w3.org/2000/svg" xmlns:xlink="http://www.w3.org/1999/xlink" style="isolation:isolate" viewBox="2053 663.75 310 547.462" width="310pt" height="547.462pt"><defs><clipPath id="_clipPath_upUAHg4nXwKOwABj44OrO2sk8Ib1xlAc"><rect x="2053" y="663.75" width="310" height="547.462"/></clipPath></defs><g clip-path="url(#_clipPath_upUAHg4nXwKOwABj44OrO2sk8Ib1xlAc)"><g><g><path d=" M 2208 685 C 2122.556 685 2053 754.556 2053 840 C 2053 976.72 2205.209 1211.212 2208 1211.212 C 2210.993 1211.018 2363 973.813 2363 840 C 2363 754.556 2293.444 685 2208 685 Z  M 2208 758.927 C 2242.657 758.927 2274.975 786.023 2274.975 826.693 C 2274.975 867.363 2240.996 892.804 2208 892.804 C 2175.004 892.804 2141.122 870.398 2141.122 828.396 C 2141.122 786.395 2173.343 758.927 2208 758.927 Z " fill="rgb(255,255,255)"/><path d=" M 2208 692.615 C 2127.627 692.615 2062.199 758.043 2062.199 838.416 C 2062.199 967.021 2205.374 1187.597 2208 1187.597 C 2210.816 1187.415 2353.801 964.288 2353.801 838.416 C 2353.801 758.043 2288.373 692.615 2208 692.615 Z  M 2208 762.154 C 2240.6 762.154 2271 787.642 2271 825.898 C 2271 864.155 2239.037 888.086 2208 888.086 C 2176.962 888.086 2145.091 867.009 2145.091 827.501 C 2145.091 787.992 2175.4 762.154 2208 762.154 Z " fill="rgb(255,222,27)"/><clipPath id="_clipPath_8lmWbpMhdfihDMQlMIjb77FnGrjraUlj"><path d=" M 2208 692.615 C 2127.627 692.615 2062.199 758.043 2062.199 838.416 C 2062.199 967.021 2205.374 1187.597 2208 1187.597 C 2210.816 1187.415 2353.801 964.288 2353.801 838.416 C 2353.801 758.043 2288.373 692.615 2208 692.615 Z  M 2208 762.154 C 2240.6 762.154 2271 787.642 2271 825.898 C 2271 864.155 2239.037 888.086 2208 888.086 C 2176.962 888.086 2145.091 867.009 2145.091 827.501 C 2145.091 787.992 2175.4 762.154 2208 762.154 Z " fill="rgb(255,255,255)"/></clipPath><g clip-path="url(#_clipPath_8lmWbpMhdfihDMQlMIjb77FnGrjraUlj)"><g><rect x="1957.281" y="686.842" width="216.478" height="632.342" transform="matrix(0.985,-0.174,0.174,0.985,-142.988,374.603)" fill="rgb(35,31,32)"/><rect x="2234.714" y="730.806" width="216.478" height="632.342" transform="matrix(0.985,0.174,-0.174,0.985,217.851,-391.609)" fill="rgb(239,73,47)"/></g></g><circle vector-effect="non-scaling-stroke" cx="2207.999999999999" cy="825.0973878285025" r="64.9696135142708" fill="none"/><clipPath id="_clipPath_RsgHOEB2QacrVs0pj6yCQsKqlSGDqgKJ"><circle vector-effect="non-scaling-stroke" cx="2207.999999999999" cy="825.0973878285025" r="64.9696135142708" fill="rgb(255,255,255)"/></clipPath><g clip-path="url(#_clipPath_RsgHOEB2QacrVs0pj6yCQsKqlSGDqgKJ)"><mask id="_mask_LztwMewqHHUSwExTuu0Pk6UbW7y4JbME"><circle vector-effect="non-scaling-stroke" cx="2207.999999999999" cy="825.0973878285025" r="64.9696135142708" fill="white" stroke="none"/></mask><circle vector-effect="non-scaling-stroke" cx="2207.999999999999" cy="825.0973878285025" r="64.9696135142708" fill="none"/><circle vector-effect="non-scaling-stroke" cx="2207.999999999999" cy="825.0973878285025" r="64.9696135142708" fill="none" mask="url(#_mask_LztwMewqHHUSwExTuu0Pk6UbW7y4JbME)" stroke-width="20" stroke="rgb(255,255,255)" stroke-opacity="100" stroke-linejoin="miter" stroke-linecap="square" stroke-miterlimit="3"/></g></g></g></g></svg>